<?xml version="1.0" encoding="UTF-8" standalone="no"?>
<!-- Created with Inkscape (http://www.inkscape.org/) -->

<svg
   xmlns:dc="http://purl.org/dc/elements/1.1/"
   xmlns:cc="http://creativecommons.org/ns#"
   xmlns:rdf="http://www.w3.org/1999/02/22-rdf-syntax-ns#"
   xmlns:svg="http://www.w3.org/2000/svg"
   xmlns="http://www.w3.org/2000/svg"
   xmlns:sodipodi="http://sodipodi.sourceforge.net/DTD/sodipodi-0.dtd"
   xmlns:inkscape="http://www.inkscape.org/namespaces/inkscape"
   width="258.38321mm"
   height="150.00014mm"
   viewBox="0 0 258.38321 150.00013"
   version="1.1"
   id="svg6856"
   sodipodi:docname="logo_red.svg"
   inkscape:version="0.92.3 (2405546, 2018-03-11)"
   inkscape:export-filename="C:\Users\mgett\Pictures\bitmap.png"
   inkscape:export-xdpi="10.643809"
   inkscape:export-ydpi="10.643809">
  <defs
     id="defs6850" />
  <sodipodi:namedview
     id="base"
     pagecolor="#ffffff"
     bordercolor="#666666"
     borderopacity="1.0"
     inkscape:pageopacity="0.0"
     inkscape:pageshadow="2"
     inkscape:zoom="0.86"
     inkscape:cx="494.08692"
     inkscape:cy="267.6979"
     inkscape:document-units="mm"
     inkscape:current-layer="layer1"
     showgrid="false"
     inkscape:window-width="1483"
     inkscape:window-height="729"
     inkscape:window-x="103"
     inkscape:window-y="95"
     inkscape:window-maximized="0"
     showguides="false" />
  <metadata
     id="metadata6853">
    <rdf:RDF>
      <cc:Work
         rdf:about="">
        <dc:format>image/svg+xml</dc:format>
        <dc:type
           rdf:resource="http://purl.org/dc/dcmitype/StillImage" />
        <dc:title></dc:title>
      </cc:Work>
    </rdf:RDF>
  </metadata>
  <g
     inkscape:label="Layer 1"
     inkscape:groupmode="layer"
     id="layer1"
     transform="translate(45.296748,-9.5447565)">
    <path
       inkscape:connector-curvature="0"
       style="font-style:normal;font-variant:normal;font-weight:normal;font-stretch:normal;font-size:266.66665649px;line-height:1.25;font-family:'Warsaw Gothic';-inkscape-font-specification:'Warsaw Gothic';letter-spacing:0px;word-spacing:0px;display:inline;fill:#ba1f13;fill-opacity:1;stroke:none;stroke-width:0.26458332"
       d="M 0.10358228,9.5447565 A 34.66927,75.715508 8.8751354 0 0 -44.105604,84.545361 34.66927,75.715508 8.8751354 0 0 -18.314412,159.54489 H -3.8145237 A 34.66927,75.715508 8.8751354 0 1 -29.605714,84.545361 34.66927,75.715508 8.8751354 0 1 14.603474,9.5447565 Z m 18.49964572,0 A 34.66927,75.715508 8.8751354 0 0 -25.605958,84.544831 34.66927,75.715508 8.8751354 0 0 0.18523328,159.54489 H 6.1853823 A 34.66927,75.715508 8.8751354 0 1 -19.605807,84.545361 34.66927,75.715508 8.8751354 0 1 24.60338,9.5447565 Z m 13.000241,0 A 34.66927,75.715508 8.8751354 0 0 -12.605202,84.544301 34.66927,75.715508 8.8751354 0 0 13.185471,159.54489 h 6.000152 A 34.66927,75.715508 8.8751354 0 1 -6.6055677,84.545361 34.66927,75.715508 8.8751354 0 1 37.603619,9.5447565 Z m 9.999906,0 A 34.66927,75.715508 8.8751354 0 0 -2.6058117,84.544831 34.66927,75.715508 8.8751354 0 0 23.185377,159.54489 H 41.685541 A 34.66927,75.715508 8.8751354 0 1 15.89435,84.544831 34.66927,75.715508 8.8751354 0 1 60.103539,9.5447565 Z m 21.500497,0 A 34.66927,75.715508 8.8751354 0 0 18.894166,84.544831 34.66927,75.715508 8.8751354 0 0 44.685874,159.54489 34.66927,75.715508 8.8751354 0 0 76.371799,129.44544 1.6217408,1.6217408 0 0 1 74.949659,127.83831 V 94.705441 a 22.555394,51.484583 8.677946 0 1 -22.334553,39.621879 22.235011,51.722795 8.6011582 0 0 22.890593,-49.542199 22.235011,51.722795 8.6011582 0 0 0.21136,-2.10169 1.6217408,1.6217408 0 0 1 -0.22376,-0.62838 L 70.464146,44.717287 a 1.6217408,1.6217408 0 0 1 0.729671,-1.578716 22.235011,51.722795 8.6011582 0 0 -11.444261,-9.570474 22.555394,51.484583 8.677946 0 1 0.408241,-0.03204 22.555394,51.484583 8.677946 0 1 11.962061,9.343091 h 5.031221 a 1.6217408,1.6217408 0 0 1 1.61282,1.455738 c 0.29017,2.818791 0.61513,5.638429 0.93638,8.445473 0.3415,-2.827364 0.66791,-5.638429 1.02319,-8.48061 a 1.6217408,1.6217408 0 0 1 1.6092,-1.420601 h 3.96255 a 1.6217408,1.6217408 0 0 1 1.61024,1.431952 c 0.33149,2.817653 0.68012,5.604245 1.01493,8.407241 l 0.27646,-2.455651 A 34.66927,75.715508 8.8751354 0 0 63.103872,9.5447565 Z M 57.666994,33.891074 A 22.235011,51.722795 8.6011582 0 1 71.40569,84.785121 22.235011,51.722795 8.6011582 0 1 46.126612,135.38306 22.555394,51.484583 8.677946 0 1 31.128563,84.544831 22.555394,51.484583 8.677946 0 1 57.666994,33.891074 Z M 205.4156,44.094061 c -4.826,0.1016 -7.16287,4.114668 -7.16287,8.737468 0,1.016 0.15253,2.032026 0.45733,2.997226 1.0668,3.9624 4.06412,7.975415 6.14692,10.921816 1.0668,1.6256 2.84479,4.318 2.84479,6.35 0,2.3876 -0.60993,4.11498 -2.23553,4.11498 -2.4892,0 -2.59054,-3.6576 -2.59054,-6.35 l -5.38468,0.50798 c 0,6.2484 1.37122,10.87117 7.97522,10.87117 5.588,0 7.62021,-3.96227 7.62021,-9.39787 0,-2.032 -0.66054,-3.96242 -1.62574,-5.84202 -0.9652,-1.879603 -2.23521,-3.809977 -3.50521,-5.689577 -1.0668,-1.5748 -2.13328,-3.048132 -2.94608,-4.470532 -0.8128,-1.4224 -1.37201,-2.743173 -1.37201,-4.013173 0,-2.1844 0.45759,-3.657521 1.87999,-3.708321 1.9304,0 2.18437,3.301894 2.18437,5.384694 l 5.38468,-0.507973 c 0,-2.0828 -0.30469,-4.571736 -1.37149,-6.603736 -1.0668,-1.9812 -2.99736,-3.352932 -6.29936,-3.302132 z m -133.344316,0.406188 5.029145,37.338292 h 4.26693 c 0.9144,-6.604 1.87959,-13.20808 2.84479,-19.86288 h 0.2036 c 0.9144,6.6548 1.87959,13.25888 2.84479,19.86288 h 4.26692 l 5.02915,-37.338292 h -5.07979 l -2.18436,19.405521 -0.10181,1.21957 h -0.40617 c -0.8636,-6.858 -1.67646,-13.716291 -2.48926,-20.625091 h -3.96255 c -0.8636,6.9088 -1.67645,13.767091 -2.48925,20.625091 h -0.40618 c -0.7112,-6.9088 -1.57496,-13.716291 -2.28616,-20.625091 z m 27.119795,0 v 37.338292 h 5.486481 V 65.58217 h 4.26744 v 16.256371 h 5.48597 V 44.500249 H 108.945 V 59.94374 h -4.26744 V 44.500249 Z m 19.347651,0 v 37.338292 h 12.54756 v -5.63893 h -7.06107 V 65.93822 h 5.07979 v -5.99448 h -5.07979 v -9.804558 h 7.06107 v -5.638933 z m 15.57735,0 v 37.338292 h 12.54755 v -5.63893 h -7.06107 V 65.93822 h 5.0798 v -5.99448 h -5.0798 v -9.804558 h 7.06107 v -5.638933 z m 15.57734,0 v 37.338292 h 12.75116 v -5.08032 h -7.26467 V 44.500249 Z m 14.98203,0 v 37.338292 h 12.54756 v -5.63893 h -7.06107 V 65.93822 h 5.07979 v -5.99448 h -5.07979 v -9.804558 h 7.06107 v -5.638933 z m 15.57735,0 v 37.338292 h 5.48648 V 66.090673 c 3.302,2.793978 2.79408,10.617068 4.31808,15.747868 h 5.48649 c -0.9652,-5.9944 -1.42241,-13.20789 -3.50521,-18.084695 2.0828,-1.4224 3.04787,-4.775306 3.04787,-8.483706 0,-7.0612 -2.79403,-10.769891 -9.34723,-10.769891 z m 5.48648,5.435838 c 2.8956,0 4.06384,1.727121 4.06384,5.537121 0,3.81 -1.21904,5.537147 -4.06384,5.537147 z M 53.912186,57.889621 c -2.398892,0 -4.302794,0.564277 -5.720064,1.763713 -2.825882,2.328333 -4.3892,5.291666 -4.979543,9.524997 -0.667062,5.43277 -0.04788,10.1599 1.797822,15.2399 -3.438556,4.445 -6.982298,9.17241 -7.701338,15.02854 -0.745029,6.067769 2.970946,11.429789 9.038725,11.429789 3.175,0 6.371942,-1.90487 9.267135,-4.79764 1.273751,1.69334 4.100965,3.95105 5.654436,4.51549 0.4679,0.21167 0.74176,0.28215 0.953429,0.28215 l 0.996323,-8.11371 c -0.203001,-0.0706 -0.591865,-0.35285 -1.104326,-0.77618 -0.521131,-0.35277 -1.078132,-0.98785 -1.750282,-1.83452 2.029942,-3.316129 3.853278,-8.395939 4.691187,-12.347039 l -5.929352,-1.12914 c -0.358942,1.19943 -1.277343,4.65669 -2.515092,7.26726 -1.097992,-1.97557 -2.250364,-4.65659 -3.875734,-9.80715 2.375308,-2.68111 4.389062,-5.29157 6.041491,-7.83157 3.296192,-5.00946 3.348196,-9.4547 2.555917,-12.770798 -0.7118,-2.822231 -2.622962,-5.644092 -7.420734,-5.644092 z m -0.745175,6.067822 c 2.257779,0 2.413794,2.751218 2.066023,5.009008 -0.337871,2.75167 -2.508854,6.06798 -4.522722,8.67855 -0.844256,-2.8928 -1.533916,-7.62013 -0.333311,-11.077364 0.446823,-1.340564 1.308343,-2.610168 2.79001,-2.610194 z m 31.146938,8.746248 c -0.44798,3.11624 -0.90952,6.24822 -1.33997,9.35705 a 1.6217408,1.6217408 0 0 1 -1.6061,1.3994 h -4.26745 a 1.6217408,1.6217408 0 0 1 -0.32039,-0.0341 22.555394,51.484583 8.677946 0 1 -0.11989,1.11879 22.555394,51.484583 8.677946 0 1 -0.64647,4.43487 1.6217408,1.6217408 0 0 1 0.55759,-0.10076 h 4.31808 c 2.6481,0 4.7967,0.24805 6.60942,0.98235 0.20718,0.0839 0.40831,0.1764 0.60513,0.27493 a 34.66927,75.715508 8.8751354 0 0 0.79065,-5.59139 34.66927,75.715508 8.8751354 0 0 0.108,-1.08469 h -1.74201 a 1.6217408,1.6217408 0 0 1 -1.60455,-1.38699 c -0.45498,-3.11299 -0.8921,-6.24909 -1.34204,-9.36946 z M 204.8022,90.093861 c -4.826,0.1016 -7.16287,4.11514 -7.16287,8.73794 0,1.016 0.15254,2.032049 0.45734,2.997249 1.0668,3.9624 4.06411,7.97542 6.14691,10.92182 1.0668,1.6256 2.84479,4.318 2.84479,6.35 0,2.3876 -0.60993,4.11498 -2.23553,4.11498 -2.4892,0 -2.59053,-3.6576 -2.59053,-6.35 l -5.38469,0.50798 c 0,6.2484 1.37122,10.87117 7.97522,10.87117 5.588,0 7.62021,-3.9628 7.62021,-9.3984 0,-2.032 -0.66054,-3.96242 -1.62574,-5.84202 -0.9652,-1.87958 -2.23521,-3.80998 -3.50521,-5.68958 -1.0668,-1.5748 -2.13328,-3.0476 -2.94608,-4.47 -0.8128,-1.4224 -1.37201,-2.7432 -1.37201,-4.013199 0,-2.1844 0.45759,-3.658 1.87999,-3.7088 1.9304,0 2.18437,3.3024 2.18437,5.385199 l 5.38468,-0.50797 c 0,-2.082799 -0.30469,-4.572269 -1.37149,-6.604269 -1.0668,-1.9812 -2.99736,-3.3529 -6.29936,-3.3021 z m -128.230931,0.40669 v 37.337759 h 4.31808 c 5.08,0 7.82287,-1.01595 9.29607,-3.86075 1.4224,-2.8448 1.62574,-7.46736 1.62574,-14.78256 0,-7.3152 -0.20334,-11.988909 -1.62574,-14.833709 -1.4732,-2.8448 -4.21607,-3.86074 -9.29607,-3.86074 z m 22.03948,0 V 127.83831 H 111.1583 v -5.63893 h -7.06106 v -10.26139 h 5.08031 v -5.99445 h -5.08031 v -9.804589 h 7.06106 v -5.6384 z m 22.880771,0 -5.63893,37.337759 h 5.33404 l 1.01596,-7.61968 h 5.28288 l 1.01648,7.61968 h 5.33352 l -5.63841,-37.337759 z m 18.02423,0 v 37.337759 h 12.75064 v -5.07979 h -7.26467 V 90.500551 Z m 18.16995,0 v 37.337759 h 12.54755 v -5.63893 h -7.06107 v -10.26139 h 5.0798 v -5.99445 h -5.0798 v -9.804589 h 7.06107 v -5.6384 z m 18.76578,0 v 37.337759 h 5.48648 v -15.74787 c 3.302,2.794 2.79357,10.61707 4.31757,15.74787 h 5.48649 c -0.9652,-5.9944 -1.42242,-13.20789 -3.50522,-18.08469 2.0828,-1.4224 3.04788,-4.77531 3.04788,-8.48371 0,-7.061199 -2.79352,-10.769359 -9.34672,-10.769359 z m -129.018487,0.62063 c 1.693423,4.02167 3.217097,7.12621 4.749583,10.160109 -1.548472,1.69333 -2.762933,2.96312 -4.667933,2.96312 -3.45722,0 -3.116913,-5.644169 -2.197283,-8.536969 0.595347,-1.97551 1.19225,-3.38682 2.115633,-4.58626 z m 134.504967,4.81468 c 2.8956,0 4.06384,1.72714 4.06384,5.537139 0,3.81 -1.21904,5.53765 -4.06384,5.53765 z m -99.880211,0.0512 c 1.8796,0 2.94642,0.20275 3.50522,1.98075 0.254,0.9144 0.45718,2.235359 0.50798,3.962559 0.0508,1.778 0.0506,4.16552 0.0506,7.21352 0,3.048 1.6e-4,5.43549 -0.0506,7.21349 -0.0508,1.778 -0.25398,3.09896 -0.50798,3.96256 -0.5588,1.8288 -1.62562,2.03192 -3.50522,2.03192 z m 1.62161,1.83864 v 12.094869 a 34.66927,75.715508 8.8751354 0 0 0.81701,-2.9409 c -0.003,-1.97969 -0.0101,-3.72655 -0.0465,-5.00176 -0.0473,-1.60835 -0.23971,-2.803339 -0.44339,-3.546549 -0.14968,-0.46932 -0.22834,-0.55412 -0.32711,-0.60566 z m 41.012491,3.850929 h 0.30489 c 0.6096,4.2164 1.11742,8.53424 1.72702,12.75064 h -3.75946 l 1.5751,-11.78584 z"
       id="flowRoot6712-0" />
  </g>
</svg>
