<?xml version="1.0" encoding="UTF-8" standalone="no"?>
<svg
   xmlns:dc="http://purl.org/dc/elements/1.1/"
   xmlns:cc="http://creativecommons.org/ns#"
   xmlns:rdf="http://www.w3.org/1999/02/22-rdf-syntax-ns#"
   xmlns:svg="http://www.w3.org/2000/svg"
   xmlns="http://www.w3.org/2000/svg"
   id="svg6856"
   version="1.1"
   viewBox="0 0 258.12793 150.00015"
   height="150.00015mm"
   width="258.12793mm">
  <defs
     id="defs6850" />
  <metadata
     id="metadata6853">
    <rdf:RDF>
      <cc:Work
         rdf:about="">
        <dc:format>image/svg+xml</dc:format>
        <dc:type
           rdf:resource="http://purl.org/dc/dcmitype/StillImage" />
        <dc:title></dc:title>
      </cc:Work>
    </rdf:RDF>
  </metadata>
  <g
     transform="translate(17.938962,-42.839245)"
     id="layer1">
    <path
       id="flowRoot6712"
       transform="scale(0.26458333)"
       d="M 103.79102,161.91211 A 131.03346,286.16885 8.8751354 0 0 -63.298828,445.37891 131.03346,286.16885 8.8751354 0 0 34.179688,728.8418 H 88.982422 A 131.03346,286.16885 8.8751354 0 1 -8.4960938,445.37891 131.03346,286.16885 8.8751354 0 1 158.59375,161.91211 Z m 69.91992,0 A 131.03346,286.16885 8.8751354 0 0 6.6210938,445.37695 131.03346,286.16885 8.8751354 0 0 104.09961,728.8418 h 22.67773 A 131.03346,286.16885 8.8751354 0 1 29.298828,445.37891 131.03346,286.16885 8.8751354 0 1 196.38867,161.91211 Z m 49.13476,0 A 131.03346,286.16885 8.8751354 0 0 55.757812,445.375 131.03346,286.16885 8.8751354 0 0 153.23438,728.8418 h 22.67773 A 131.03346,286.16885 8.8751354 0 1 78.433594,445.37891 131.03346,286.16885 8.8751354 0 1 245.52344,161.91211 Z m 37.79492,0 A 131.03346,286.16885 8.8751354 0 0 93.550781,445.37695 131.03346,286.16885 8.8751354 0 0 191.0293,728.8418 h 69.92187 A 131.03346,286.16885 8.8751354 0 1 163.47266,445.37695 131.03346,286.16885 8.8751354 0 1 330.5625,161.91211 Z m 81.26172,0 A 131.03346,286.16885 8.8751354 0 0 174.81055,445.37695 131.03346,286.16885 8.8751354 0 0 272.29102,728.8418 131.03346,286.16885 8.8751354 0 0 439.37891,445.37695 131.03346,286.16885 8.8751354 0 0 341.90234,161.91211 Z m -11.13476,90.67578 a 85.248733,194.5874 8.677946 0 1 62.37109,192.78906 85.248733,194.5874 8.677946 0 1 -90.8789,188.1543 84.037837,195.48773 8.6011582 0 0 86.51562,-187.24609 84.037837,195.48773 8.6011582 0 0 -59.55078,-193.57618 85.248733,194.5874 8.677946 0 1 1.54297,-0.12109 z m -9.41406,1.3418 A 84.037837,195.48773 8.6011582 0 1 373.2793,446.28516 84.037837,195.48773 8.6011582 0 1 277.73633,637.52148 85.248733,194.5874 8.677946 0 1 221.05078,445.37695 85.248733,194.5874 8.677946 0 1 321.35352,253.92969 Z m -14.19141,90.70312 c -9.06667,0 -16.26252,2.13269 -21.61914,6.66602 -10.6805,8.8 -16.58909,20 -18.82031,36 -2.52118,20.53333 -0.18095,38.39961 6.79492,57.59961 -12.99612,16.8 -26.38979,34.66745 -29.10742,56.80078 -2.81586,22.93333 11.22877,43.19922 34.16211,43.19922 12,0 24.08294,-7.19948 35.02539,-18.13282 4.81417,6.4 15.4997,14.93308 21.37109,17.06641 1.76844,0.8 2.80352,1.06641 3.60352,1.06641 l 3.76562,-30.66602 c -0.76726,-0.26666 -2.23695,-1.33359 -4.17383,-2.93359 -1.96962,-1.33334 -4.07481,-3.7336 -6.61523,-6.9336 7.67223,-12.53333 14.56355,-31.73268 17.73047,-46.66601 l -22.41016,-4.26758 c -1.35662,4.53333 -4.82772,17.60013 -9.50586,27.4668 -4.14987,-7.46667 -8.50531,-17.59974 -14.64844,-37.06641 8.97755,-10.13333 16.58859,-19.99961 22.83399,-29.59961 12.45805,-18.93333 12.65459,-35.73424 9.66015,-48.26758 -2.69029,-10.66666 -9.91354,-21.33203 -28.04687,-21.33203 z m -2.81641,22.9336 c 8.53334,0 9.12303,10.3983 7.8086,18.93164 -1.27696,10.4 -9.48228,22.93411 -17.09375,32.80078 -3.19089,-10.93333 -5.79749,-28.80052 -1.25977,-41.86719 1.68878,-5.06667 4.94492,-9.86523 10.54492,-9.86523 z m -21.67187,102.66601 c 6.40034,15.2 12.1591,26.93373 17.95117,38.40039 -5.85249,6.4 -10.44258,11.19922 -17.64258,11.19922 -13.06666,0 -11.78046,-21.33229 -8.30469,-32.26562 2.25013,-7.46667 4.50614,-12.80066 7.9961,-17.33399 z"
       style="font-style:normal;font-variant:normal;font-weight:normal;font-stretch:normal;font-size:266.66665649px;line-height:1.25;font-family:'Warsaw Gothic';-inkscape-font-specification:'Warsaw Gothic';letter-spacing:0px;word-spacing:0px;display:inline;fill:#120f0f;fill-opacity:1;stroke:none" />
    <path
       transform="scale(0.26458333)"
       id="flowRoot6222-64"
       d="m 878.80859,285.99609 c -18.24,0.384 -27.07226,15.55144 -27.07226,33.02344 0,3.84 0.57651,7.68013 1.72851,11.32813 4.032,14.976 15.35847,30.14329 23.23047,41.27929 4.032,6.144 10.75196,16.32 10.75196,24 0,9.024 -2.30327,15.55274 -8.44727,15.55274 -9.408,0 -9.79102,-13.824 -9.79102,-24 l -20.35351,1.91992 c 0,23.616 5.18453,41.08789 30.14453,41.08789 21.12,0 28.80078,-14.97553 28.80078,-35.51953 0,-7.68 -2.49653,-14.97608 -6.14453,-22.08008 -3.648,-7.104 -8.44805,-14.39991 -13.24805,-21.50391 -4.032,-5.952 -8.06472,-11.52048 -11.13672,-16.89648 -3.072,-5.376 -5.18359,-10.36797 -5.18359,-15.16797 0,-8.256 1.72752,-13.82362 7.10352,-14.01562 7.296,0 8.25586,12.47956 8.25586,20.35156 l 20.35351,-1.91992 c 0,-7.872 -1.15355,-17.28094 -5.18555,-24.96094 -4.032,-7.488 -11.32664,-12.67052 -23.80664,-12.47852 z m -503.97851,1.53516 19.00781,141.12109 h 16.12695 c 3.456,-24.96 7.10396,-49.92026 10.75196,-75.07226 h 0.76758 c 3.45599,25.152 7.10395,50.11226 10.75195,75.07226 h 16.1289 l 19.00782,-141.12109 h -19.19922 l -8.25586,73.34375 -0.38477,4.60938 h -1.53515 c -3.264,-25.92 -6.33621,-51.84113 -9.40821,-77.95313 h -14.97656 c -3.264,26.112 -6.3362,52.03313 -9.4082,77.95313 h -1.53516 c -2.688,-26.112 -5.95262,-51.84113 -8.64062,-77.95313 z m 102.5,0 v 141.12109 h 20.73633 v -61.4414 h 16.12695 v 61.4414 h 20.73633 V 287.53125 h -20.73633 v 58.36914 h -16.12695 v -58.36914 z m 73.125,0 v 141.12109 h 47.42383 v -21.3125 h -26.6875 v -38.78515 h 19.19921 v -22.6543 h -19.19921 v -37.05664 h 26.6875 v -21.3125 z m 58.875,0 v 141.12109 h 47.42383 v -21.3125 h -26.6875 v -38.78515 h 19.19921 v -22.6543 h -19.19921 v -37.05664 h 26.6875 v -21.3125 z m 58.875,0 v 141.12109 h 48.1914 V 409.45117 H 688.94141 V 287.53125 Z m 56.625,0 v 141.12109 h 47.42383 v -21.3125 h -26.6875 v -38.78515 h 19.19921 v -22.6543 h -19.19921 v -37.05664 h 26.6875 v -21.3125 z m 58.875,0 v 141.12109 h 20.73633 v -59.52148 c 12.48,10.56 10.56031,40.12948 16.32031,59.52148 h 20.73633 c -3.648,-22.656 -5.37605,-49.92151 -13.24805,-68.35351 7.872,-5.376 11.51953,-18.0465 11.51953,-32.0625 0,-26.688 -10.56012,-40.70508 -35.32812,-40.70508 z m 20.73633,20.54492 c 10.944,0 15.35937,6.52774 15.35937,20.92774 0,14.4 -4.60737,20.92773 -15.35937,20.92773 z m 72.04882,151.77735 c -18.24,0.384 -27.07226,15.55143 -27.07226,33.02343 0,3.84 0.57651,7.68013 1.72851,11.32813 4.032,14.976 15.36043,30.14525 23.23243,41.28125 4.032,6.144 10.75195,16.32 10.75195,24 0,9.024 -2.30522,15.55078 -8.44922,15.55078 -9.408,0 -9.79102,-13.824 -9.79102,-24 l -20.35351,1.91992 c 0,23.616 5.18453,41.08789 30.14453,41.08789 21.12,0 28.80078,-14.97553 28.80078,-35.51953 0,-7.68 -2.49653,-14.97608 -6.14453,-22.08008 -3.648,-7.104 -8.44805,-14.3999 -13.24805,-21.5039 -4.032,-5.952 -8.06472,-11.52049 -11.13672,-16.89649 -3.07199,-5.376 -5.18359,-10.36797 -5.18359,-15.16797 0,-8.256 1.72752,-13.82362 7.10352,-14.01562 7.296,0 8.25781,12.48151 8.25781,20.35351 l 20.35156,-1.92187 c 0,-7.872 -1.15159,-17.27899 -5.18359,-24.95899 -4.032,-7.488 -11.3286,-12.67246 -23.8086,-12.48046 z m -484.65234,1.5371 v 141.11915 h 16.31836 c 19.2,0 29.56872,-3.8398 35.13672,-14.5918 5.376,-10.752 6.14453,-28.22505 6.14453,-55.87305 0,-27.648 -0.76853,-45.3105 -6.14453,-56.0625 -5.568,-10.752 -15.93672,-14.5918 -35.13672,-14.5918 z m 83.29883,0 v 141.11915 h 47.42383 v -21.3125 h -26.6875 v -38.78321 h 19.19922 v -22.65625 h -19.19922 v -37.05664 h 26.6875 v -21.31055 z m 86.47656,0 -21.31055,141.11915 h 20.16016 l 3.83984,-28.80079 h 19.9668 l 3.83985,28.80079 h 20.16015 l -21.3125,-141.11915 z m 68.12305,0 v 141.11915 h 48.19336 V 583.31055 H 650.47266 V 461.39062 Z m 68.67578,0 v 141.11915 h 47.42383 v -21.3125 h -26.6875 v -38.78321 h 19.19922 v -22.65625 h -19.19922 v -37.05664 h 26.6875 v -21.31055 z m 70.92578,0 v 141.11915 h 20.73438 v -59.51954 c 12.48,10.56 10.56031,40.12754 16.32031,59.51954 h 20.73633 c -3.648,-22.656 -5.37605,-49.91957 -13.24805,-68.35157 7.872,-5.376 11.51953,-18.04845 11.51953,-32.06445 0,-26.688 -10.56012,-40.70312 -35.32812,-40.70313 z m 20.73438,20.54297 c 10.944,0 15.36132,6.52774 15.36132,20.92774 0,14.4 -4.60932,20.92773 -15.36132,20.92773 z m -377.5,0.19141 c 7.104,0 11.13604,0.76828 13.24804,7.48828 0.96,3.456 1.72792,8.44856 1.91992,14.97656 0.192,6.72 0.19336,15.74368 0.19336,27.26368 0,11.52 -10e-4,20.54367 -0.19336,27.26367 -0.192,6.72 -0.95992,11.71256 -1.91992,14.97656 -2.112,6.912 -6.14404,7.67969 -13.24804,7.67969 z m 161.13671,21.50391 h 1.15235 c 2.304,15.936 4.2253,32.25736 6.52929,48.19336 h -14.20898 l 5.95313,-44.54493 z"
       style="font-style:normal;font-variant:normal;font-weight:normal;font-stretch:normal;font-size:192px;line-height:1.25;font-family:'Warsaw Gothic';-inkscape-font-specification:'Warsaw Gothic';text-align:start;letter-spacing:0px;word-spacing:0px;text-anchor:start;display:inline;fill:#999999;fill-opacity:1;stroke:none" />
  </g>
</svg>
