<svg xmlns="http://www.w3.org/2000/svg" viewBox="0 0 44 32"><title>mail@1x</title><g id="Layer_2" data-name="Layer 2"><g id="Web"><g id="Mail_2x.png" data-name="Mail@2x.png"><path d="M40,0H4A4,4,0,0,0,0,4V28a4,4,0,0,0,4,4H40a4,4,0,0,0,4-4V4A4,4,0,0,0,40,0ZM4,2H40a2,2,0,0,1,.67.12L23.36,19.43a1.91,1.91,0,0,1-2.71,0L3.33,2.12A2,2,0,0,1,4,2ZM2,28V4a2,2,0,0,1,0-.35L14.38,16,2,28.35A2,2,0,0,1,2,28Zm38,2H4a2,2,0,0,1-.67-.12L15.8,17.41l3.43,3.43a3.91,3.91,0,0,0,5.54,0l3.43-3.43L40.67,29.88A2,2,0,0,1,40,30Zm2-2a2,2,0,0,1,0,.35L29.62,16,42,3.65A2,2,0,0,1,42,4Z"/></g></g></g></svg>